<svg xmlns="http://www.w3.org/2000/svg" id="Camada_2" data-name="Camada 2" viewBox="0 0 805.59 168.43"><defs><style>      .cls-1 {        fill: #fff;        stroke-width: 0px;      }    </style></defs><g id="Camada_1-2" data-name="Camada 1"><g><g><path class="cls-1" d="M10.17,85.29V16.42C10.17,7.12,6.1,1.45.15,1.45h-.15V0h33.85c43.01,0,50.85,12.64,50.85,24.55,0,10.32-12.5,19.91-30.22,19.91,19.76,0,37.49,14.82,37.49,28.48,0,14.97-13.95,28.77-56.96,28.77H0v-1.45h.15c5.96,0,10.03-5.67,10.03-14.96ZM34,100.4c31.53,0,42.43-16.42,42.43-30.95,0-11.04-9.44-24.12-23.68-24.12h-19.61v-1.31h16.13c11.91,0,20.49-11.19,20.49-21.79,0-11.33-6.1-20.78-36.03-20.92h-9.73v99.09h10.03Z"></path><path class="cls-1" d="M99.75,61.91c0-20.46,13.76-40.93,41.38-40.93s42.52,20.24,42.52,40.59-14.33,41.27-42.52,41.27-41.38-20.46-41.38-40.93ZM110.32,55.89c0,21.26,12.96,45.36,34.68,45.36,19.9,0,28.31-15.8,28.31-32.86,0-21.26-13.98-45.93-36.61-45.93-18.42,0-26.38,16.26-26.38,33.43Z"></path><path class="cls-1" d="M203.2,37.58c0,21.72,56.05,22.62,56.05,45.36,0,13.42-16.26,20.58-32.63,20.58s-33.43-7.39-33.43-23.08h1.02c0,15.01,16.03,21.37,31.04,21.37,13.19,0,25.69-4.89,25.69-13.07,0-21.37-54.8-19.78-54.8-45.93,0-15.35,14.44-21.94,29.11-21.94,32.52,0,34.45,27.85,23.08,27.85-2.39,0-4.55-1.71-4.55-4.66,0-12.96-6.71-21.71-21.37-21.71-9.89,0-19.21,5.46-19.21,15.23Z"></path><path class="cls-1" d="M277.55,37.58c0,21.72,56.05,22.62,56.05,45.36,0,13.42-16.26,20.58-32.63,20.58s-33.43-7.39-33.43-23.08h1.02c0,15.01,16.03,21.37,31.04,21.37,13.19,0,25.69-4.89,25.69-13.07,0-21.37-54.8-19.78-54.8-45.93,0-15.35,14.44-21.94,29.11-21.94,32.52,0,34.45,27.85,23.08,27.85-2.39,0-4.55-1.71-4.55-4.66,0-12.96-6.71-21.71-21.37-21.71-9.89,0-19.21,5.46-19.21,15.23Z"></path><path class="cls-1" d="M350.88,86.36c-.8,1.59-1.14,3.07-1.14,4.21,0,3.87,1.48,10,7.16,10h.57v1.14h-23.08v-1.14c5.34,0,11.82-6.71,13.87-11.14l5.8-12.51h-8.07v-1.02h8.53l20.92-45.93-3.41-7.84h11.71l31.04,71.29c1.25,2.84,5.23,7.16,8.53,7.16v1.14h-24.67v-1.14h.34c2.84,0,3.87-1.48,3.87-3.52,0-1.59-.45-3.41-1.25-5.12l-25.81-60.94-20.24,44.91h31.15v1.02h-31.61l-4.21,9.44Z"></path><path class="cls-1" d="M473.57,12.64v70.76c0,9.3,7.26,16.85,13.22,16.85h.14v1.45h-28.19v-1.45h.15c5.96,0,13.37-7.55,13.37-16.85V16.42c0-9.3-4.07-14.96-10.03-14.96V0h18.45l68.58,78.31V19.32c0-9.3-7.26-17.87-13.22-17.87h-.15V0h26.88v1.45h-.14c-5.96,0-12.06,8.57-12.06,17.87v82.38h-1.31L473.57,12.64Z"></path><path class="cls-1" d="M567.94,61.91c0-20.46,13.76-40.93,41.38-40.93s42.52,20.24,42.52,40.59-14.33,41.27-42.52,41.27-41.38-20.46-41.38-40.93ZM578.51,55.89c0,21.26,12.96,45.36,34.68,45.36,19.9,0,28.31-15.8,28.31-32.86,0-21.26-13.98-45.93-36.61-45.93-18.42,0-26.38,16.26-26.38,33.43Z"></path><path class="cls-1" d="M698.45,92.84l25.01-55.37c.68-1.59,1.02-3.07,1.02-4.32,0-3.87-1.48-10.01-7.16-10.01h-.45v-1.02h22.97v1.02c-5.23,0-11.82,6.82-13.76,11.14l-27.17,59.46,3.3,7.96h-11.6l-31.04-71.4c-1.36-2.84-5.23-7.28-8.64-7.28v-.91h24.79v1.02h-.34c-2.96,0-3.98,1.59-3.98,3.64,0,1.48.57,3.3,1.36,5.12l25.69,60.94Z"></path><path class="cls-1" d="M732.9,86.36c-.8,1.59-1.14,3.07-1.14,4.21,0,3.87,1.48,10,7.16,10h.57v1.14h-23.08v-1.14c5.34,0,11.82-6.71,13.87-11.14l5.8-12.51h-8.07v-1.02h8.53l20.92-45.93-3.41-7.84h11.71l31.04,71.29c1.25,2.84,5.23,7.16,8.53,7.16v1.14h-24.67v-1.14h.34c2.84,0,3.87-1.48,3.87-3.52,0-1.59-.46-3.41-1.25-5.12l-25.81-60.94-20.24,44.91h31.15v1.02h-31.61l-4.21,9.44Z"></path></g><g><path class="cls-1" d="M621.67,168.43v-28.72h3.41v11.05h15.26v-11.05h3.47v28.72h-3.47v-14.42h-15.26v14.42h-3.41Z"></path><path class="cls-1" d="M660.73,168.43v-28.72h15.15v3.12h-11.73v8.24h11.73v3.18h-11.73v11.01h11.73v3.18h-15.15Z"></path><path class="cls-1" d="M700.79,138.57l13.07,29.86h-3.71l-3.73-8.81h-11.22l-3.73,8.81h-3.71l13.03-29.86ZM700.79,146.12l-4.57,10.57h9.14l-4.57-10.57Z"></path><path class="cls-1" d="M726.86,168.43v-28.72h3.41v25.46h10.85v3.26h-14.26Z"></path><path class="cls-1" d="M758.06,168.43v-25.46h-8.12v-3.26h19.66v3.26h-8.08v25.46h-3.45Z"></path><path class="cls-1" d="M783.44,168.43v-28.72h3.41v11.05h15.26v-11.05h3.47v28.72h-3.47v-14.42h-15.26v14.42h-3.41Z"></path></g></g></g></svg>